{
  "accessors": [
    {
      "bufferView": 2,
      "componentType": 5126,
      "count": 1864,
      "max": [
        1.018422245979309,
        3.424746036529541,
        16.14188575744629
      ],
      "min": [
        -1.198114037513733,
        -3.424745559692383,
        -12.627199172973633
      ],
      "type": "VEC3"
    },
    {
      "bufferView": 2,
      "byteOffset": 22368,
      "componentType": 5126,
      "count": 1864,
      "max": [
        0.9266879558563232,
        0.9705175161361694,
        0.9423651099205017
      ],
      "min": [
        -0.975072979927063,
        -0.9705175161361694,
        -0.7974951267242432
      ],
      "type": "VEC3"
    },
    {
      "bufferView": 1,
      "componentType": 5126,
      "count": 1864,
      "max": [
        1.0914673805236816,
        2.936074733734131
      ],
      "min": [
        -0.09146720170974731,
        -2.041356086730957
      ],
      "type": "VEC2"
    },
    {
      "bufferView": 1,
      "byteOffset": 14912,
      "componentType": 5126,
      "count": 1864,
      "max": [
        1.0914673805236816,
        2.936074733734131
      ],
      "min": [
        -0.09146720170974731,
        -2.041356086730957
      ],
      "type": "VEC2"
    },
    {
      "bufferView": 0,
      "componentType": 5125,
      "count": 4836,
      "type": "SCALAR"
    },
    {
      "bufferView": 2,
      "byteOffset": 44736,
      "componentType": 5126,
      "count": 48,
      "max": [
        0.8117669820785522,
        3.130211591720581,
        7.34907865524292
      ],
      "min": [
        -0.929314911365509,
        -3.130211591720581,
        -12.435525894165039
      ],
      "type": "VEC3"
    },
    {
      "bufferView": 2,
      "byteOffset": 45312,
      "componentType": 5126,
      "count": 48,
      "max": [
        0.5794637203216553,
        0.9041255116462708,
        0.5779096484184265
      ],
      "min": [
        -0.5773502588272095,
        -0.9041255116462708,
        -0.57940274477005
      ],
      "type": "VEC3"
    },
    {
      "bufferView": 1,
      "byteOffset": 29824,
      "componentType": 5126,
      "count": 48,
      "max": [
        2.0995936393737793,
        2.0995938777923584
      ],
      "min": [
        -1.0995936393737793,
        -1.0995938777923584
      ],
      "type": "VEC2"
    },
    {
      "bufferView": 1,
      "byteOffset": 30208,
      "componentType": 5126,
      "count": 48,
      "max": [
        2.0995936393737793,
        2.0995938777923584
      ],
      "min": [
        -1.0995936393737793,
        -1.0995938777923584
      ],
      "type": "VEC2"
    },
    {
      "bufferView": 0,
      "byteOffset": 19344,
      "componentType": 5125,
      "count": 180,
      "type": "SCALAR"
    }
  ],
  "asset": {
    "extras": {
      "author": "dylanheyes (https://sketchfab.com/dylanheyes)",
      "license": "CC-BY-4.0 (http://creativecommons.org/licenses/by/4.0/)",
      "source": "https://sketchfab.com/3d-models/sci-fi-bench-seats-29a320f329ef4022a5302742e57d5eeb",
      "title": "Sci-Fi Bench Seats"
    },
    "generator": "Sketchfab-13.46.0",
    "version": "2.0"
  },
  "bufferViews": [
    {
      "buffer": 0,
      "byteLength": 20064,
      "name": "floatBufferViews",
      "target": 34963
    },
    {
      "buffer": 0,
      "byteLength": 30592,
      "byteOffset": 20064,
      "byteStride": 8,
      "name": "floatBufferViews",
      "target": 34962
    },
    {
      "buffer": 0,
      "byteLength": 45888,
      "byteOffset": 50656,
      "byteStride": 12,
      "name": "floatBufferViews",
      "target": 34962
    }
  ],
  "buffers": [
    {
      "byteLength": 96544,
      "uri": "scene.bin"
    }
  ],
  "images": [
    {
      "uri": "textures/Metal_baseColor.jpeg"
    },
    {
      "uri": "textures/Metal_metallicRoughness.png"
    },
    {
      "uri": "textures/Seat_baseColor.jpeg"
    }
  ],
  "materials": [
    {
      "doubleSided": true,
      "name": "Metal",
      "pbrMetallicRoughness": {
        "baseColorTexture": {
          "index": 0
        },
        "metallicRoughnessTexture": {
          "index": 1
        },
        "roughnessFactor": 0.32499999999999996
      }
    },
    {
      "doubleSided": true,
      "name": "Seat",
      "pbrMetallicRoughness": {
        "baseColorTexture": {
          "index": 2
        },
        "metallicFactor": 0.5
      }
    }
  ],
  "meshes": [
    {
      "name": "Cube.003_Metal_0",
      "primitives": [
        {
          "attributes": {
            "NORMAL": 1,
            "POSITION": 0,
            "TEXCOORD_0": 2,
            "TEXCOORD_1": 3
          },
          "indices": 4,
          "material": 0,
          "mode": 4
        }
      ]
    },
    {
      "name": "Cube.003_Seat_0",
      "primitives": [
        {
          "attributes": {
            "NORMAL": 6,
            "POSITION": 5,
            "TEXCOORD_0": 7,
            "TEXCOORD_1": 8
          },
          "indices": 9,
          "material": 1,
          "mode": 4
        }
      ]
    }
  ],
  "nodes": [
    {
      "children": [
        1
      ],
      "matrix": [
        0.9999730587005615,
        -0.007338694762438536,
        5.959798769784512e-17,
        0.0,
        -6.12355256202555e-17,
        -2.229119666630197e-16,
        1.0,
        0.0,
        -0.007338694762438536,
        -0.9999730587005615,
        -2.2335534994700885e-16,
        0.0,
        0.0,
        0.0,
        0.0,
        1.0
      ],
      "name": "Sketchfab_model"
    },
    {
      "children": [
        2
      ],
      "matrix": [
        0.009999999776482582,
        0.0,
        0.0,
        0.0,
        0.0,
        -0.009999999776482582,
        0.0,
        0.0,
        0.0,
        0.0,
        -0.009999999776482582,
        0.0,
        0.0,
        0.0,
        0.0,
        1.0
      ],
      "name": "AirportSeating.fbx"
    },
    {
      "children": [
        3,
        6
      ],
      "name": "RootNode"
    },
    {
      "children": [
        4
      ],
      "matrix": [
        -95.51712256601574,
        -29.086464616267662,
        -5.51891281995893,
        0.0,
        -21.839123966993384,
        56.63932032960517,
        79.46722630716812,
        0.0,
        -19.988330425567018,
        77.11008428097941,
        -60.4524734727919,
        0.0,
        -100.54539489746094,
        407.6245422363281,
        590.38623046875,
        1.0
      ],
      "name": "Light"
    },
    {
      "children": [
        5
      ],
      "matrix": [
        1.0,
        0.0,
        0.0,
        0.0,
        0.0,
        2.220446049250313e-16,
        1.0,
        0.0,
        0.0,
        -1.0,
        2.220446049250313e-16,
        0.0,
        0.0,
        0.0,
        0.0,
        1.0
      ],
      "name": "Object_4"
    },
    {
      "name": "Object_5"
    },
    {
      "children": [
        7,
        8
      ],
      "matrix": [
        1.629206793918314e-05,
        99.99999999999868,
        -0.0,
        -0.0,
        -99.99999999999868,
        1.629206793918314e-05,
        -0.0,
        -0.0,
        -0.0,
        -0.0,
        -8.999999046325684,
        -0.0,
        0.0,
        0.0,
        84.8344955444336,
        1.0
      ],
      "name": "Cube.003"
    },
    {
      "mesh": 0,
      "name": "Cube.003_Metal_0"
    },
    {
      "mesh": 1,
      "name": "Cube.003_Seat_0"
    }
  ],
  "samplers": [
    {
      "magFilter": 9729,
      "minFilter": 9987,
      "wrapS": 10497,
      "wrapT": 10497
    }
  ],
  "scene": 0,
  "scenes": [
    {
      "name": "Sketchfab_Scene",
      "nodes": [
        0
      ]
    }
  ],
  "textures": [
    {
      "sampler": 0,
      "source": 0
    },
    {
      "sampler": 0,
      "source": 1
    },
    {
      "sampler": 0,
      "source": 2
    }
  ]
}
